<svg xmlns="http://www.w3.org/2000/svg" width="800" height="600" viewBox="0 0 800 600">
  <defs>
    <linearGradient id="grass-gradient" x1="0%" y1="0%" x2="0%" y2="100%">
      <stop offset="0%" style="stop-color:#4CAF50;stop-opacity:1"/>
      <stop offset="100%" style="stop-color:#2D5A27;stop-opacity:0.8"/>
    </linearGradient>
  </defs>
  <rect width="100%" height="100%" fill="#87CEEB"/>
  <!-- Horse-face shaped mountain (Kudremukh means horse-face in Kannada) -->
  <path d="M200 600 L300 200 L400 300 L500 150 L600 250 L700 200 L800 300 L800 600 Z" fill="#2F4F4F"/>
  <path d="M300 600 L400 250 L500 350 L600 200 L700 300 L800 250 L800 600 Z" fill="url(#grass-gradient)"/>
  <!-- Clouds -->
  <g opacity="0.7" fill="#FFFFFF">
    <circle cx="200" cy="100" r="25"/>
    <circle cx="230" cy="100" r="30"/>
    <circle cx="260" cy="100" r="20"/>
    
    <circle cx="600" cy="150" r="30"/>
    <circle cx="630" cy="150" r="35"/>
    <circle cx="660" cy="150" r="25"/>
  </g>
  <!-- Trekking trail -->
  <path d="M300 600 C400 500 500 450 600 350" stroke="#8B4513" stroke-width="6" fill="none" opacity="0.6" stroke-dasharray="10,10"/>
  <!-- Trees -->
  <g fill="#2D5A27">
    <path d="M150 500 L180 400 L210 500 Z"/>
    <path d="M170 550 L200 450 L230 550 Z"/>
    <path d="M650 450 L680 350 L710 450 Z"/>
    <path d="M670 500 L700 400 L730 500 Z"/>
  </g>
  <!-- Sun -->
  <circle cx="100" cy="100" r="40" fill="#FDB813" opacity="0.8"/>
</svg>