<svg xmlns="http://www.w3.org/2000/svg" width="800" height="600" viewBox="0 0 800 600">
  <rect width="100%" height="100%" fill="#87CEEB"/>
  <path d="M0 200 L200 50 L400 250 L600 100 L800 200 L800 600 L0 600 Z" fill="#2D5A27" opacity="0.8"/>
  <path d="M0 300 L200 150 L400 350 L600 200 L800 300 L800 600 L0 600 Z" fill="#8B4513" opacity="0.6"/>
  <circle cx="700" cy="80" r="40" fill="#FDB813" opacity="0.9"/>
  <!-- Flowers -->
  <g transform="translate(100,250)">
    <circle cx="0" cy="0" r="10" fill="#FF69B4"/>
    <circle cx="50" cy="30" r="8" fill="#9370DB"/>
    <circle cx="100" cy="-20" r="12" fill="#FF1493"/>
    <circle cx="150" cy="40" r="9" fill="#BA55D3"/>
    <circle cx="200" cy="-10" r="11" fill="#FF69B4"/>
  </g>
  <g transform="translate(400,300)">
    <circle cx="0" cy="0" r="10" fill="#9370DB"/>
    <circle cx="50" cy="-30" r="8" fill="#FF1493"/>
    <circle cx="100" cy="20" r="12" fill="#BA55D3"/>
    <circle cx="150" cy="-40" r="9" fill="#FF69B4"/>
    <circle cx="200" cy="10" r="11" fill="#9370DB"/>
  </g>
</svg>